<svg class="orkla-logo" xmlns="http://www.w3.org/2000/svg" viewBox="0 0 504.07 282.02"><g><path class="fill" d="m151.87,96.6c2.8-.3,5.8.1,8.7.6,5.3.8,10.6,2.1,15.5,4.7,2.8,1.5,5.8,2.6,8.4,4.5,2.7,2,5.5,4,8,6.4,4.2,4,7.8,8.5,10.7,13.5,2,3.5,3.6,7.1,4.9,10.9,1.5,4.4,2.5,8.9,2.8,13.6.2,3.3.3,6.5.1,9.8-.1,1.6,0,3.3-.3,4.8-.7,3.1-1.3,6.3-2.3,9.4-2.6,8.3-6.9,15.6-12.7,22-5.4,5.9-11.8,10.4-19,13.8-4.4,2.1-9,3.2-13.7,4.3-4.9,1.2-9.9,1.2-14.8,1.1-6-.1-11.7-1.6-17.4-3.3-2.5-.7-5-1.6-7.2-2.8-3.4-1.9-7.1-3.6-10-6.2-3.3-2.9-6.7-5.7-9.4-9.3-2.4-3.2-4.7-6.4-6.6-9.9-2.1-3.9-3.8-8-4.8-12.4-.9-3.6-1.6-7.2-1.8-10.8-.2-3.9-.3-7.8.3-11.7.3-2.1.5-4.2.9-6.2.4-2.1,1.1-4.2,1.7-6.3,1.1-3.8,3.2-7.2,4.9-10.7,1.6-3.4,4.3-6.1,6.4-9.2,1.3-1.9,3.3-3.2,5-4.9,3-2.8,6.2-5.3,9.8-7.2,4.9-2.6,10-5.1,15.5-6.2,2.6-.5,5.2-1.2,7.8-1.6,2.8-.8,5.6-.8,8.6-.7Zm-39.9,61.4c.2,1.4.1,3.2.4,5,.8,4.5,2.1,8.8,4.2,12.9,2.7,5.4,6.5,9.9,11.4,13.4,8,5.7,16.9,8,26.6,7.1,8.3-.7,15.6-3.9,21.9-9.4,3-2.6,5.5-5.7,7.5-9.2,1.6-2.8,3-5.6,3.8-8.7.9-3.3,1.5-6.7,1.8-10.2.2-2.5,0-5-.2-7.5-.3-3.8-1.2-7.5-2.5-10.9-3.4-8.7-9.1-15.5-17.4-19.9-7.9-4.3-16.4-5.5-25.3-4.1-7.3,1.2-13.7,4.3-19.2,9.2-3.3,3-6.1,6.4-8.2,10.3-1.4,2.6-2.5,5.4-3.3,8.3-.6,2.1-1,4.2-1.4,6.3-.2,2.4-.2,4.8-.1,7.4Zm336.8-36.7c6.3-.6,12.5,0,18.5,2.4,5.9,2.3,11,5.7,15.5,10.4,0-2.5.1-5.1,0-7.6,0-.8.3-1.1,1-1.2,3.3-.6,6.5-1.1,9.8-1.7,2.5-.4,5-.8,7.4-1.4.7-.2,1.4,0,2-.5.4-.3,1.1,0,1.1.8v89.7c0,1.2-.2,1.5-1.5,1.5-6.1-.1-12.2-.1-18.3,0-1.3,0-1.6-.4-1.5-1.6.1-2.9,0-5.8,0-8.7-.5.1-.7.5-1,.8-2.3,2.4-4.9,4.6-7.7,6.3-3.1,1.8-6.5,3.1-9.9,4.2-4.7,1.5-9.5,1.4-14.3,1.3-5.5-.1-10.7-1.8-15.8-3.7-2.1-.8-4.1-1.7-5.8-3-2.3-1.7-4.5-3.6-6.8-5.4-.5-.4-.9-1-1.4-1.2-1.2-.6-1.5-2-2.3-2.9s-1.3-2-2.1-2.9c-.4-.4-.4-1.1-.7-1.7-1.3-2.2-2.9-4.3-3.7-6.7-1.2-3.3-2.2-6.7-2.8-10.2-.9-5.3-1.1-10.5-.7-15.8.3-3.1.6-6.3,1.7-9.3,1.2-3.5,2.6-6.9,4.4-10.1,1.3-2.2,2.8-4.2,4.2-6.3,1.1-1.5,2.5-2.7,3.9-4,2.4-2.3,5.1-4.3,8-5.9,3.4-1.8,6.9-3.2,10.6-4.1,2.7-.6,5.4-1.3,8.2-1.2-.1-.1,0-.1,0-.3Zm-20.3,46c0,3.4.1,6.2.8,9,.7,2.9,1.5,5.8,2.9,8.4,4.6,8.5,11.7,13.1,21.4,13.7,6.4.4,12.3-1,17.6-4.4,4.3-2.7,7-6.7,8.8-11.3,2-4.9,2.8-10,2.6-15.3,0-1.3,0-2.5-.2-3.8-.4-2.2-.5-4.4-1.2-6.6-1.4-4.3-3.5-8.2-6.8-11.3-5.1-4.9-11.5-6.6-18.4-6.8-2.9-.1-5.8.3-8.7,1-6.6,1.6-11.6,5.3-14.9,11.2-2.8,5.1-4.1,10.8-3.9,16.2Zm-63.8-43.8c-2.5,2.9-4.9,5.6-7.2,8.3-3,3.6-6.1,7.1-9.1,10.6-3.8,4.3-7.5,8.6-11.2,12.9-1.8,2.1-3.8,4.1-5.6,6.3-.4.5-.5.9-.1,1.4,3.4,4.3,6.5,8.8,9.7,13.2,2.1,2.8,4.1,5.6,6.1,8.5.2.2.3.6.5.6,1,.2,1.1,1.2,1.5,1.8,1,1.8,2.1,3.5,3.5,4.9,1,1,1.5,2.3,2.6,3.3.8.6,1.1,1.9,1.8,2.9,3.8,5.1,7.5,10.2,11.2,15.3-.4.3-.8.2-1.2.2h-23.4c-.9,0-1.3-.3-1.8-1-3.7-5.4-7.5-10.8-11.2-16.2-4.2-6.1-8.3-12.3-12.4-18.4-.5-.7-.9-1.1-1.6-.2-3.5,4.3-7.4,8.1-11,12.2-.5.5-.6,1-.6,1.7v20.8c0,.9-.2,1.2-1.2,1.2h-18.8c-1,0-1.3-.3-1.3-1.3v-120.2c0-1,.3-1.3,1.4-1.4,2-.2,4.1-.6,6.1-1,4-.7,7.9-1.4,11.9-2.1,1.8-.3,1.9-.2,1.9,1.7v72.2c0,.2-.1.5.2.6.3.1.4-.2.6-.3,1.1-1.4,2.2-2.8,3.3-4.2,1.7-2.2,3.8-4.1,5.5-6.3,1.7-2.2,3.7-4.2,5.4-6.5,2.7-3.5,5.7-6.8,8.6-10.2,2-2.4,3.9-5,6.1-7.3,1.1-1.1,2.2-2.2,3-3.5.2-.3.4-.4.8-.4,8.4-.1,17-.1,26-.1Zm31.6,27v61.7q0,1.5-1.6,1.5h-18.6c-1,0-1.2-.3-1.2-1.2v-120.3c0-1,.2-1.3,1.3-1.4,2-.2,3.9-.4,5.9-.9,2.1-.5,4.3-.7,6.5-1.2,1.9-.5,3.9-.6,5.9-1,.2,0,.4-.1.6-.3.7-.5,1.1-.3,1.1.6v1c.1,20.5.1,41,.1,61.5Zm-129.6-29.2c2-.3,3.9-.1,5.8.1.8.1.6.7.6,1.1v16.8c0,1.1.5,2.6-.2,3.2-.5.5-2,.1-3.1.1-1.3,0-2.6-.3-3.9-.3-4.3.2-8.4,1-12.3,2.7-3,1.3-5.3,3.5-7.1,6.4-1.8,3-2.5,6.2-2.5,9.6v51.2c0,1.1-.3,1.4-1.4,1.4-6.3-.1-12.5,0-18.8,0-.9,0-1.6,0-1-1.2.1-.3,0-.7,0-1.1v-84.7c0-1,.1-1.4,1.3-1.6,3.6-.6,7.1-1.1,10.7-1.9,1.9-.4,3.8-.7,5.7-.9.8-.1,1.6-.1,2.3-.3,1.1-.4,1.1.1,1.1.9v15.5c1-1.7,1.6-3.2,2.6-4.4,1-1.4,1.9-3,3.1-4.2,2.9-3,6.2-5.5,10.2-7,2-.7,3.9-1.5,6.1-1.5.4.4.6.4.8.1Zm-218.6-28c-2.9-1.8-5.6-3.9-8.3-5.9-6.6-4.8-13.1-9.6-19.7-14.3-2.7-1.9-5.3-4-8-5.9-2.7-1.8-5.2-3.8-7.8-5.7-1-.7-2-1.3-3-1.9-.8-.5-1.5-1.1-1.2-2.2s1.2-1,2-1h50.9c1,0,1.4-.2,1.8-1.3.9-2.7,1.6-5.4,2.4-8,1.3-3.9,2.4-7.9,3.9-11.8,1.3-3.5,2.2-7.1,3.4-10.6,1.3-3.7,2.6-7.4,3.7-11.2,1.1-3.7,2.4-7.2,3.5-10.9.2-.7-.2-1.6.8-2.2,1.2-.7,2-.5,2.4.8,1.6,5,3.3,10,4.9,15,1.9,6.2,4,12.3,5.9,18.5,1.8,5.9,3.7,11.7,5.7,17.5.3,1,.7,2.1.9,3.1.1.7.4.9,1.1.9,1.6,0,3.2,0,4.9.2-1.3.7-2.5,1.3-3.8,2-3.9,2.1-7.7,4.5-11.3,7.1-.5.4-.7.6-1.1-.3-.8-2.2-1.3-4.5-2-6.7-1.9-5.6-3.7-11.2-5.5-16.8-.4-1.2-.4-2.6-1.2-3.9-.9,2.9-1.9,5.6-2.7,8.4-2,6.4-4.1,12.9-6.1,19.4-.2.6-.4,1.2-.6,1.8-.2.6-.8.5-1.2.5h-28.4c-.5,0-.9-.1-1.4.1,2.9,4.7,5.8,9.4,8.7,14.1,2.1,3.3,4.1,6.6,6.2,10,0,.4.3.7.2,1.2q0-.1,0,0Zm.7,63.8c-.4-.4-.5-.7-.5-1.1.2-2.3.1-4.5.3-6.8.1-2.1.4-4.1.7-6.2.3-2.2.6-4.4,1-6.6.2-1,.3-1.9.5-2.9.8-4.1,1.7-8.2,3.2-12.1,1.3-3.6,2.5-7.3,4.1-10.8,1.5-3.2,3.1-6.3,4.9-9.3,2.4-4,5.2-7.8,7.9-11.5,1.7-2.4,3.7-4.6,5.8-6.7,2.6-2.6,5.1-5.3,8-7.6,2.2-1.8,4.5-3.4,6.7-5.1,3.6-2.8,7.6-4.8,11.4-7.2,1.3-.8,3-.7,3.9-2.1,2.9-.3,5.4-1.9,8.2-2.7,4.6-1.3,9.2-1.9,14-1.9,7.6.1,15.2,0,22.8,0,.6,0,1.2,0,1.5.7s.1,1.2-.3,1.8c-.3.4-.8.4-1.1.5-7.9,2.1-15.8,4.4-23.5,7.2-5.1,1.9-10.1,3.9-15,6.1-5.4,2.4-10.5,5.3-15.5,8.4-3.1,1.9-6.1,4.1-8.8,6.4-4,3.4-7.8,7-11.4,10.9-3.3,3.5-6.4,7.1-9.3,11-3.4,4.7-6.4,9.7-9.1,14.8-2.1,4-3.9,8.1-5.3,12.4-.8,2.5-1.6,4.9-2.3,7.5-.8,2.9-1.3,5.8-1.8,8.7-.5,1.2-1.1,2.6-1,4.2Zm295.2,109c.3-.6.2-1,.2-1.4v-29c0-1,.3-1.3,1.3-1.3,2.1.1,4.2.1,6.4,0,1,0,1.3.3,1.3,1.3v45.2c0,.8-.2,1.1-1.1,1.1-1.7-.1-3.4-.1-5,0-1,.1-1.7-.3-2.3-1.1-2.4-3.7-5.6-6.7-8.2-10.1-2.2-2.9-4.7-5.5-6.8-8.6-.1-.1-.1-.2-.2-.3-2.6-1.9-3.9-5-6.1-7.3-1.2-1.3-2.3-2.8-3.7-4.4v30.4c0,1.2-.3,1.5-1.5,1.4-2.2-.1-4.3-.1-6.5,0-.7,0-.9-.2-.9-1v-45.6c0-.8.3-1,1-1,1.6,0,3.3.2,4.9,0,1.3-.2,2,.7,2.9,1.2.4.2.2,1.1.7,1.6,1.5,1.6,2.9,3.2,4.2,4.9,2.5,3,4.8,6.2,7.2,9.2,4,4.8,8,9.7,12.2,14.8Zm27-8v-22.4c0-.9.2-1.3,1.2-1.3,7.4.1,14.9-.1,22.3.1,2.7.1,5.3.7,7.8,1.4,1.3.4,2.8.7,3.8,1.5,3.4,2.7,7.1,5.2,8.9,9.5,1.1,2.8,2.1,5.5,2.4,8.6.5,4-.2,7.7-1.4,11.4-1.1,3.6-3.2,6.6-6,8.9-3.3,2.7-7.2,4.3-11.3,5.4-2.2.6-4.5.7-6.8.7h-19.8c-.9,0-1.1-.2-1.1-1.1v-22.7Zm8.8-.1v15.2c0,.9.2,1.2,1.1,1.1,1.2-.1,2.5,0,3.7,0,4.4-.2,8.9.6,13.2-.9,1.8-.7,3.6-1.4,5.1-2.6,2.8-2.3,4.5-5.2,5.3-8.7,1.3-5.8-.2-13.6-6.5-17.5-3.2-2-6.7-2.5-10.2-2.7s-7,0-10.5-.1c-1,0-1.2.3-1.2,1.2.1,5.1,0,10.1,0,15Zm124.1,23.9h-8.9c-.9,0-.9-.8-1.1-1.3-1.3-2.9-2.4-5.9-3.7-8.8-.2-.6-.7-.8-1.4-.8h-21.8c-.8,0-1.1.4-1.4,1-1.3,3.1-2.5,6.2-3.8,9.3-.2.5-.5.7-1.1.7h-7.4c-.9,0-.8-.3-.6-1,.4-1.4,1.3-2.5,1.8-3.9,1.1-2.9,2.6-5.6,3.7-8.5.7-1.8,1.7-3.5,2.5-5.3,2-4.4,4-8.7,5.9-13.1,1-2.4,2.2-4.8,3.2-7.2,1.1-2.7,2.5-5.3,3.7-7.9.2-.5.5-.5,1-.5h7.2c.6,0,.9.2,1.1.7.5,1.2.9,2.7,1.7,3.6.9,1.1.8,2.5,1.6,3.5.7.9.8,2,1.2,3,.5,1.5,1.4,2.8,2,4.2,1,2.3,2.2,4.5,3.1,6.9,1.6,4.1,3.6,7.9,5.4,11.9,1.8,4.4,4,8.9,6.1,13.5Zm-25.9-38.5c-.8,1.7-1.5,3.1-2.1,4.5-1,2.5-1.9,5-3,7.4-1.2,2.5-2.3,5-3.4,7.5-.3.8-.1,1,.7,1h15.6c1,0,1.1-.5.7-1.1-.4-.6-.6-1.3-.9-1.9-1.7-3.9-3.4-7.7-5.1-11.6-.7-1.7-1.6-3.6-2.5-5.8Zm-185.2,14.8v22.6c0,.9-.2,1.2-1.1,1.1-2.2-.1-4.5,0-6.7,0-.7,0-1.1-.1-1.1-1v-45.6c0-.7.2-1,1-1,2.2,0,4.5.1,6.7,0,.9,0,1.2.2,1.2,1.2v22.7Zm148.3-.1v22.7c0,.9-.2,1.2-1.1,1.1-2.3-.1-4.6,0-6.8,0-.7,0-.9-.2-.9-1v-45.5c0-.8.2-1,1-1,2.3,0,4.6.1,6.8,0,.9,0,1,.3,1,1.1-.1,7.5,0,15.1,0,22.6Zm-174.4-136.8c-.2.2-.4.2-.6,0,.2-.1.4-.1.6,0Zm182.1,0q-.1.2-.2,0,.1-.1.2,0ZM48.17,93.2c.2.1.3.2.1.4h0c-.1-.2-.1-.3-.1-.4q-.1,0,0,0Zm.1.3h.2v.1c-.1,0-.1-.1-.2-.1h0Z"></path></g></svg>